# xmcd
#
# Track frame offsets: 
#        150
#        9422
#        20515
#        30669
#        41245
#        52370
#        62352
#        72650
#        84222
#        96985
#        107967
#        118465
#
# Disc length: 1698 seconds
#
# Revision: 4
# Processed by: cddbd v1.5.2PL0 Copyright (c) Steve Scherf et al.
# Submitted via: ExactAudioCopy v1.1
#
DISCID=aa06a00c
DTITLE=Buck Owens - Sings Tommy Collins (1963)
DYEAR=1997
DGENRE=Country
TTITLE0=If You Ain't Lovin' You Ain't Livin'
TTITLE1=But I Do
TTITLE2=It Tickles
TTITLE3=I Always Get A Souvenir
TTITLE4=My Last Chance With You
TTITLE5=Smooth Sailin'
TTITLE6=You Gotta Have A License
TTITLE7=High On A Hilltop
TTITLE8=There'll Be No Other
TTITLE9=Whatcha Gonna Do Now
TTITLE10=No Love Have I
TTITLE11=Down, Down, Down
EXTD=
EXTT0=
EXTT1=
EXTT2=
EXTT3=
EXTT4=
EXTT5=
EXTT6=
EXTT7=
EXTT8=
EXTT9=
EXTT10=
EXTT11=
PLAYORDER=
